<?xml version="1.0" standalone="no"?>
<!DOCTYPE svg PUBLIC "-//W3C//DTD SVG 20010904//EN"
 "http://www.w3.org/TR/2001/REC-SVG-20010904/DTD/svg10.dtd">
<svg version="1.0" xmlns="http://www.w3.org/2000/svg"
 width="512.000000pt" height="512.000000pt" viewBox="0 0 512.000000 512.000000"
 preserveAspectRatio="xMidYMid meet">

<g transform="translate(0.000000,512.000000) scale(0.100000,-0.100000)"
fill="#000000" stroke="none">
<path d="M3696 4394 c27 -87 3 -197 -60 -271 -15 -17 -54 -46 -88 -62 -69 -35
-152 -41 -222 -16 l-39 14 38 -39 c82 -84 215 -107 320 -55 167 81 206 312 76
439 l-40 39 15 -49z"/>
<path d="M2528 3238 c-15 -5 -181 -78 -370 -163 -301 -134 -345 -157 -362
-185 -23 -39 -13 -84 25 -112 l26 -20 358 92 c353 91 387 96 372 57 -6 -15
-22 -20 -407 -118 l-245 -63 58 -25 57 -24 0 -202 c0 -197 1 -203 23 -224 24
-24 470 -221 498 -221 28 0 472 197 497 220 21 21 22 28 22 220 0 146 3 200
13 207 6 6 55 29 107 52 107 48 126 62 135 101 10 46 -18 87 -78 114 -351 157
-666 295 -682 299 -11 3 -32 1 -47 -5z"/>
<path d="M817 2748 c19 -54 13 -160 -12 -208 -24 -48 -82 -108 -130 -132 -54
-28 -150 -35 -209 -15 -25 9 -46 12 -46 7 0 -4 21 -27 46 -49 112 -99 273 -93
379 12 80 81 105 184 69 290 -14 43 -86 137 -104 137 -4 0 -1 -19 7 -42z"/>
<path d="M4636 2743 c32 -106 8 -200 -70 -279 -78 -77 -190 -105 -288 -70 -21
8 -38 10 -38 6 0 -5 21 -27 46 -49 137 -120 347 -80 432 83 36 70 38 179 3
246 -23 44 -78 110 -92 110 -4 0 -1 -21 7 -47z"/>
<path d="M1847 2470 c-25 -20 -27 -26 -27 -101 l0 -80 68 3 67 3 3 71 c2 56
-1 75 -15 92 -27 32 -64 37 -96 12z"/>
<path d="M1765 1104 c19 -52 18 -140 -1 -196 -45 -135 -209 -217 -346 -175
-46 14 -47 14 -35 -4 81 -114 280 -131 395 -33 121 103 126 297 12 409 l-39
38 14 -39z"/>
</g>
</svg>
